<?xml version="1.0" standalone="no"?>
<!DOCTYPE svg PUBLIC "-//W3C//DTD SVG 20010904//EN"
 "http://www.w3.org/TR/2001/REC-SVG-20010904/DTD/svg10.dtd">
<svg version="1.0" xmlns="http://www.w3.org/2000/svg"
 width="512.000000pt" height="512.000000pt" viewBox="0 0 512.000000 512.000000"
 preserveAspectRatio="xMidYMid meet">

<g transform="translate(0.000000,512.000000) scale(0.100000,-0.100000)"
fill="#000000" stroke="none">
<path d="M533 4783 c-48 -9 -68 -173 -68 -558 0 -272 18 -811 29 -860 50 -225
75 -295 103 -295 10 0 33 8 52 18 26 13 38 27 46 57 13 46 0 96 -54 202 -17
34 -31 66 -31 71 0 4 14 16 30 25 47 28 43 41 -70 257 -53 102 -62 457 -20
825 17 146 23 265 14 264 -5 -1 -19 -4 -31 -6z"/>
<path d="M4475 4570 c-3 -6 1 -7 9 -4 18 7 21 14 7 14 -6 0 -13 -4 -16 -10z"/>
<path d="M4014 4317 c-6 -7 -67 -66 -135 -132 -148 -144 -232 -203 -413 -292
-65 -33 -75 -35 -136 -29 l-65 6 -41 -53 c-77 -97 -132 -232 -137 -327 -2 -51
0 -55 28 -69 16 -8 63 -16 104 -17 l73 -3 23 -63 c48 -138 87 -183 229 -264
l71 -40 -4 -45 c-1 -24 -5 -46 -6 -48 -2 -1 -21 11 -42 27 -115 91 -209 102
-336 39 -97 -48 -178 -125 -215 -204 -25 -55 -27 -66 -27 -200 0 -124 2 -145
18 -160 18 -17 19 -17 36 4 18 22 19 22 67 4 27 -10 65 -21 84 -24 30 -6 27
-2 -25 24 -33 16 -80 50 -105 75 l-45 44 0 73 c0 107 19 161 79 222 69 71 135
97 252 103 83 4 97 2 153 -23 67 -30 113 -79 146 -155 16 -35 20 -67 20 -145
-1 -124 -24 -177 -93 -212 -24 -12 -39 -24 -34 -27 5 -3 38 9 73 26 72 36 56
44 131 -71 54 -83 156 -188 191 -197 15 -3 40 -1 56 6 34 14 108 85 127 123
18 35 26 30 49 -30 63 -166 195 -410 251 -464 62 -60 147 -36 192 55 49 97 51
224 5 369 -45 146 -64 270 -63 427 1 80 1 149 1 153 -1 5 -18 -2 -38 -15 -32
-19 -51 -23 -118 -22 -123 1 -240 55 -402 186 -48 39 -61 60 -138 213 -132
266 -166 414 -126 558 29 106 68 179 159 300 43 56 106 143 141 192 35 50 69
93 75 97 6 4 8 10 4 13 -3 4 -15 1 -27 -7 -16 -10 -23 -10 -33 0 -15 15 -20
15 -34 -1z"/>
<path d="M2950 3866 l-45 -11 1 -85 c0 -47 3 -102 7 -122 7 -35 50 -98 67 -98
4 0 11 28 14 63 4 34 16 98 28 142 34 134 34 124 2 123 -16 -1 -49 -6 -74 -12z"/>
<path d="M3061 3813 c-45 -158 -55 -281 -24 -315 16 -18 18 -16 30 42 16 78
80 212 132 276 23 27 41 52 41 56 0 5 -36 8 -80 8 l-79 0 -20 -67z"/>
<path d="M2825 3815 c-30 -29 -32 -60 -6 -100 30 -46 59 -80 64 -75 2 3 1 34
-3 69 -5 35 -6 79 -3 98 7 41 -16 45 -52 8z"/>
<path d="M940 3429 c0 -5 5 -7 10 -4 6 3 10 8 10 11 0 2 -4 4 -10 4 -5 0 -10
-5 -10 -11z"/>
<path d="M795 3270 c-4 -6 -11 -8 -16 -5 -5 4 -9 -2 -9 -11 0 -16 1 -16 20 1
11 10 20 20 20 22 0 7 -9 3 -15 -7z"/>
<path d="M1510 3195 c-119 -34 -268 -144 -309 -228 -12 -24 -21 -61 -21 -83 0
-41 29 -116 50 -129 9 -6 9 -3 1 13 -35 66 29 241 117 319 126 112 411 69 509
-76 45 -66 21 -218 -47 -303 -23 -28 -27 -38 -15 -38 20 0 19 -7 -5 -37 -25
-32 -25 -50 -1 -58 37 -11 71 13 97 69 54 119 57 272 6 372 -78 153 -226 222
-382 179z"/>
<path d="M4661 3174 c0 -11 3 -14 6 -6 3 7 2 16 -1 19 -3 4 -6 -2 -5 -13z"/>
<path d="M1511 3109 c-70 -12 -127 -46 -185 -110 -49 -55 -66 -98 -66 -171 0
-36 6 -54 26 -78 36 -42 66 -56 149 -69 213 -32 377 112 335 296 -15 68 -59
115 -123 132 -51 12 -60 12 -136 0z m189 -173 c0 -20 -27 -39 -45 -32 -25 9
-30 37 -10 52 20 15 55 2 55 -20z m-192 -75 c2 -13 -4 -31 -14 -42 -38 -42
-107 -4 -88 48 17 50 95 45 102 -6z"/>
<path d="M3260 2901 c-47 -20 -103 -69 -126 -113 -21 -40 -18 -141 6 -187 41
-82 117 -125 220 -125 65 0 82 4 123 28 135 80 156 237 47 347 -68 69 -175 88
-270 50z m188 -107 c31 -21 26 -63 -9 -83 -24 -13 -29 -13 -53 2 -33 22 -34
60 -4 81 28 20 38 20 66 0z m-228 -139 c18 -21 5 -45 -25 -45 -14 0 -28 7 -31
15 -7 17 12 45 31 45 7 0 18 -7 25 -15z"/>
<path d="M1334 2665 c11 -8 24 -15 30 -15 5 0 1 7 -10 15 -10 8 -23 14 -29 14
-5 0 -1 -6 9 -14z"/>
<path d="M1396 2641 c12 -11 73 -31 93 -30 9 0 5 4 -9 9 -66 22 -93 29 -84 21z"/>
<path d="M2154 2280 c-29 -5 -87 -22 -130 -38 l-79 -28 -9 -48 c-9 -46 -9 -47
35 -92 48 -50 92 -74 137 -74 41 0 45 -9 17 -42 -29 -34 -32 -75 -10 -122 22
-46 76 -95 121 -111 26 -9 41 -21 45 -37 7 -22 7 -23 8 -1 1 17 9 24 36 29 40
7 138 68 173 106 21 24 22 29 12 68 -6 22 -14 48 -17 56 -4 11 6 14 48 15 103
1 268 40 291 69 26 32 22 49 -20 89 -56 52 -138 98 -239 133 -80 29 -101 32
-228 34 -77 2 -163 -1 -191 -6z m-154 -170 c-8 -5 -19 -10 -25 -10 -5 0 -3 5
5 10 8 5 20 10 25 10 6 0 3 -5 -5 -10z m155 -10 c3 -5 1 -10 -4 -10 -6 0 -11
5 -11 10 0 6 2 10 4 10 3 0 8 -4 11 -10z m382 -26 c-3 -3 -12 -4 -19 -1 -8 3
-5 6 6 6 11 1 17 -2 13 -5z m138 -12 c-3 -3 -11 0 -18 7 -9 10 -8 11 6 5 10
-3 15 -9 12 -12z m45 -44 c0 -6 -6 -5 -15 2 -8 7 -15 14 -15 16 0 2 7 1 15 -2
8 -4 15 -11 15 -16z"/>
<path d="M2284 1565 c0 -49 1 -71 3 -48 2 23 2 64 0 90 -2 26 -3 8 -3 -42z"/>
<path d="M1470 1522 c0 -5 11 -14 25 -20 14 -6 25 -10 25 -8 0 2 -11 11 -25
20 -14 9 -25 13 -25 8z"/>
<path d="M1547 1479 c7 -7 15 -10 18 -7 3 3 -2 9 -12 12 -14 6 -15 5 -6 -5z"/>
<path d="M1598 1458 c5 -5 16 -8 23 -6 8 3 3 7 -10 11 -17 4 -21 3 -13 -5z"/>
<path d="M2310 1435 c0 -6 67 -41 103 -54 66 -22 48 -7 -29 25 -41 18 -74 30
-74 29z"/>
<path d="M1760 1410 c8 -5 24 -10 34 -10 26 0 18 6 -19 14 -22 5 -26 4 -15 -4z"/>
<path d="M2215 1410 c-16 -7 -17 -9 -3 -9 9 -1 20 4 23 9 7 11 7 11 -20 0z"/>
<path d="M1850 1390 c14 -4 36 -8 50 -8 22 0 22 1 -5 8 -16 4 -39 8 -50 8 -16
0 -15 -2 5 -8z"/>
<path d="M2168 1393 c7 -3 16 -2 19 1 4 3 -2 6 -13 5 -11 0 -14 -3 -6 -6z"/>
<path d="M3150 1396 c0 -2 7 -9 15 -16 9 -7 15 -8 15 -2 0 5 -7 12 -15 16 -8
3 -15 4 -15 2z"/>
<path d="M2128 1383 c7 -3 16 -2 19 1 4 3 -2 6 -13 5 -11 0 -14 -3 -6 -6z"/>
<path d="M1988 1373 c17 -2 47 -2 65 0 17 2 3 4 -33 4 -36 0 -50 -2 -32 -4z"/>
<path d="M2525 1350 c19 -8 83 -14 74 -6 -2 2 -24 6 -49 9 -30 4 -38 3 -25 -3z"/>
<path d="M2655 1328 c65 -8 258 -8 315 0 25 4 -47 7 -160 7 -113 0 -182 -3
-155 -7z"/>
</g>
</svg>
